<svg width="12" height="15" viewBox="0 0 12 15" fill="none" xmlns="http://www.w3.org/2000/svg">
<path fill-rule="evenodd" clip-rule="evenodd" d="M4.58946 12.3987C4.58941 12.4024 4.58917 12.4061 4.58917 12.4097C4.58917 13.3319 5.33628 14.0795 6.25789 14.0795C7.17951 14.0795 7.92663 13.3319 7.92663 12.4097C7.92663 12.4061 7.92639 12.4024 7.92634 12.3987H4.58946Z" fill="#D9D9D9"/>
<path fill-rule="evenodd" clip-rule="evenodd" d="M11.589 10.3115L10.0862 8.10468C10.0862 7.42915 10.0862 5.77849 10.0862 5.35148C10.0862 3.49474 8.7634 1.94703 7.00847 1.59825V0.750435C7.00844 0.336002 6.67234 0 6.25772 0C5.8431 0 5.50699 0.336002 5.50699 0.750435V1.59828C3.75207 1.94709 2.42925 3.4948 2.42925 5.35151C2.42925 6.07838 2.42925 7.68341 2.42925 8.10471L0.926418 10.3115C0.768115 10.5439 0.751371 10.8448 0.882906 11.0934C1.01444 11.3419 1.27266 11.4974 1.55397 11.4974H10.9614C11.2427 11.4974 11.501 11.3419 11.6325 11.0934C11.7641 10.8448 11.7473 10.5439 11.589 10.3115L11.589 10.3115Z" fill="#D9D9D9"/>
</svg>
