<svg width="74" height="82" viewBox="0 0 74 82" fill="none" xmlns="http://www.w3.org/2000/svg">
<path fill-rule="evenodd" clip-rule="evenodd" d="M24.6031 72.1513C20.6087 70.5374 18.6718 65.9754 20.2853 61.9818L23.0113 55.2347C24.2281 52.223 27.6684 50.7632 30.6805 51.9801L34.2432 53.4196C37.2555 54.6366 38.716 58.0766 37.4992 61.0882L34.7732 67.8353C33.1599 71.8291 28.5975 73.7651 24.6031 72.1513Z" fill="#FF52A8"/>
<path fill-rule="evenodd" clip-rule="evenodd" d="M41.7377 30.3136L41.3407 30.1532C38.3268 28.9355 36.8649 25.495 38.0816 22.4835L41.4471 14.1535C42.7081 11.0326 46.2749 9.52019 49.3981 10.7821C52.5212 12.0439 54.0365 15.6096 52.7755 18.7305L49.41 27.0605C48.1934 30.0718 44.7514 31.5313 41.7377 30.3136Z" fill="#FF52A8"/>
<path fill-rule="evenodd" clip-rule="evenodd" d="M47.0843 18.9969L45.3555 18.2984C35.6799 14.3892 24.6275 19.0815 20.7178 28.7584L14.14 45.0391C13.7245 46.0674 14.2213 47.2378 15.2494 47.6532L48.3491 61.0263C49.3773 61.4417 50.5476 60.9449 50.9631 59.9166L57.5409 43.6359C61.4507 33.9591 56.7598 22.9061 47.0843 18.9969L47.0843 18.9969Z" fill="#FEEB70"/>
<path fill-rule="evenodd" clip-rule="evenodd" d="M45.4625 71.4294L10.0999 57.1419C6.47395 55.677 4.71539 51.5363 6.17982 47.9117L6.38969 47.3922C7.85406 43.7678 11.9953 42.0111 15.6213 43.4761L50.984 57.7635C54.6101 59.2285 56.3687 63.3692 54.9044 66.9935L54.6945 67.5129C53.2298 71.1374 49.0885 72.8943 45.4625 71.4294L45.4625 71.4294Z" fill="#FEF7CB"/>
</svg>
