<svg width="18" height="18" viewBox="0 0 18 18" fill="none" xmlns="http://www.w3.org/2000/svg">
<path fill-rule="evenodd" clip-rule="evenodd" d="M14.1955 6.17727L7.65001 12.9682C7.56819 13.05 7.48637 13.0909 7.36365 13.0909C7.24092 13.0909 7.1182 13.05 7.07729 12.9682L3.88638 9.53182L3.80456 9.45C3.72274 9.36818 3.68183 9.24545 3.68183 9.16364C3.68183 9.08182 3.72274 8.95909 3.80456 8.87728L4.37729 8.30455C4.54093 8.14091 4.78638 8.14091 4.95002 8.30455L4.99093 8.34546L7.24093 10.7591C7.32275 10.8409 7.44548 10.8409 7.52729 10.7591L13.0091 5.07274H13.05C13.2137 4.9091 13.4591 4.9091 13.6228 5.07274L14.1955 5.64547C14.3591 5.7682 14.3591 6.01365 14.1955 6.17729L14.1955 6.17727ZM9 0C4.00909 0 0 4.00909 0 9C0 13.9909 4.00909 18 9 18C13.9909 18 18 13.9909 18 9C18 4.00909 13.9909 0 9 0Z" fill="#91DC5A"/>
</svg>
