<svg width="18" height="18" viewBox="0 0 18 18" fill="none" xmlns="http://www.w3.org/2000/svg">
<path fill-rule="evenodd" clip-rule="evenodd" d="M9 16.5458C4.83926 16.5458 1.4542 13.1607 1.4542 9C1.4542 4.83926 4.83925 1.4542 9 1.4542C13.1607 1.4542 16.5458 4.83925 16.5458 9C16.5458 13.1607 13.1607 16.5458 9 16.5458ZM15.3639 2.63605C13.6641 0.93617 11.404 0 9 0C6.59602 0 4.33593 0.93621 2.63605 2.63605C0.93618 4.33589 0 6.59601 0 9C0 11.404 0.93618 13.6641 2.63605 15.3639C4.33589 17.0638 6.59602 18 9 18C11.404 18 13.6641 17.0638 15.3639 15.3639C17.0638 13.6641 18 11.404 18 9C18 6.59602 17.0638 4.33589 15.3639 2.63605Z" fill="#B5B5B5"/>
</svg>
