<svg width="15" height="17" viewBox="0 0 15 17" fill="none" xmlns="http://www.w3.org/2000/svg">
<path fill-rule="evenodd" clip-rule="evenodd" d="M14.0645 2.97999H0.654753C0.293152 2.97999 -9.99974e-06 3.27306 -9.99974e-06 3.63457C-9.99974e-06 3.99607 0.293152 4.28913 0.654753 4.28913H14.0645C14.4261 4.28913 14.7192 3.99607 14.7192 3.63457C14.7192 3.27307 14.4261 2.97999 14.0645 2.97999Z" fill="#FB3636"/>
<path fill-rule="evenodd" clip-rule="evenodd" d="M12.5745 2.97999C12.2128 2.97999 11.9197 3.27315 11.9197 3.63476V14.0645C11.9197 14.5251 11.545 14.8997 11.0845 14.8997H3.63471C3.17417 14.8997 2.79952 14.525 2.79952 14.0645V3.63476C2.79952 3.27316 2.50636 2.97999 2.14476 2.97999C1.78316 2.97999 1.48999 3.27315 1.48999 3.63476V14.0645C1.48999 15.2472 2.45209 16.2093 3.63474 16.2093H11.0846C12.2672 16.2093 13.2293 15.2471 13.2293 14.0645V3.63476C13.2293 3.27316 12.9361 2.97999 12.5745 2.97999Z" fill="#FB3636"/>
<path fill-rule="evenodd" clip-rule="evenodd" d="M8.85168 0H5.86772C4.68354 0 3.7201 0.96204 3.7201 2.1446V3.63448C3.7201 3.99606 4.01367 4.2892 4.37576 4.2892C4.73786 4.2892 5.03141 3.99606 5.03141 3.63448V2.1446C5.03141 1.68409 5.40659 1.30947 5.86772 1.30947H8.85165C9.31282 1.30947 9.688 1.68412 9.688 2.1446V3.63448C9.688 3.99606 9.9815 4.2892 10.3436 4.2892C10.7057 4.2892 10.9993 3.99606 10.9993 3.63448V2.1446C10.9993 0.96207 10.0359 0 8.8517 0H8.85168Z" fill="#FB3636"/>
<path fill-rule="evenodd" clip-rule="evenodd" d="M5.86967 6.7001C5.50538 6.7001 5.21005 6.99374 5.21005 7.35598V11.8335C5.21005 12.1957 5.50538 12.4893 5.86967 12.4893C6.23393 12.4893 6.52926 12.1957 6.52926 11.8335V7.35598C6.52931 6.99375 6.23396 6.7001 5.86967 6.7001Z" fill="#FB3636"/>
<path fill-rule="evenodd" clip-rule="evenodd" d="M8.84969 6.7001C8.48536 6.7001 8.19007 6.99374 8.19007 7.35598V11.8335C8.19007 12.1957 8.48535 12.4893 8.84969 12.4893C9.21401 12.4893 9.5093 12.1957 9.5093 11.8335V7.35598C9.5093 6.99375 9.21402 6.7001 8.84969 6.7001Z" fill="#FB3636"/>
</svg>
