<svg width="17" height="17" viewBox="0 0 17 17" fill="none" xmlns="http://www.w3.org/2000/svg">
<path fill-rule="evenodd" clip-rule="evenodd" d="M5.66761 11.5203H5.66748C5.32278 11.5203 4.98127 11.4303 4.67989 11.2601L3.16667 10.3996C2.20968 9.8576 1.87458 8.64375 2.41966 7.69378L5.75329 1.85806C6.10857 1.24024 6.77495 0.856445 7.49239 0.856445C7.83707 0.856445 8.17849 0.946435 8.47972 1.11669L9.99294 1.97716C10.9497 2.51906 11.2848 3.73291 10.74 4.68303L7.40631 10.5187C7.05104 11.1366 6.38481 11.5204 5.66761 11.5204V11.5203ZM0.859822 16.4833C0.797832 16.4833 0.736352 16.4672 0.682042 16.4366C0.565932 16.3715 0.496032 16.2488 0.499642 16.1163L0.653242 11.7561C0.661592 11.5253 0.793092 11.3124 0.996442 11.2006C1.09513 11.1464 1.20672 11.1178 1.31916 11.1178C1.43627 11.1178 1.55166 11.1487 1.65285 11.2071L4.72668 12.9406C4.93079 13.0543 5.06092 13.2695 5.06628 13.5021C5.07166 13.7346 4.95165 13.9554 4.75308 14.0785L1.05284 16.4271C0.995062 16.4639 0.928312 16.4834 0.859812 16.4834L0.859822 16.4833ZM15.8334 16.5003H5.8331C5.46553 16.5003 5.16649 16.2033 5.16649 15.8382C5.16649 15.4734 5.46553 15.1766 5.8331 15.1766H15.8334C16.201 15.1766 16.5 15.4734 16.5 15.8382C16.5 16.2033 16.201 16.5003 15.8334 16.5003Z" fill="#5F87E7"/>
</svg>
