<svg width="30" height="36" viewBox="0 0 30 36" fill="none" xmlns="http://www.w3.org/2000/svg">
<path fill-rule="evenodd" clip-rule="evenodd" d="M26.2552 8.18327H3.0689C2.50481 8.18327 2.04596 7.72442 2.04596 7.16033C2.04596 6.59651 2.50481 6.13766 3.0689 6.13766H26.2552C26.819 6.13766 27.2781 6.59651 27.2781 7.16033C27.2781 7.72442 26.819 8.18327 26.2552 8.18327ZM13.639 18.4127H15.6849C17.1891 18.4127 18.4128 19.6364 18.4128 21.1403C18.4128 22.6446 17.1891 23.8682 15.6849 23.8682V25.573C15.6849 26.1379 15.2268 26.5959 14.6619 26.5959C14.097 26.5959 13.639 26.1379 13.639 25.573V23.8682H11.9343C11.3694 23.8682 10.9113 23.4102 10.9113 22.8453C10.9113 22.2804 11.3694 21.8224 11.9343 21.8224H15.6849C16.0609 21.8224 16.3669 21.5164 16.3669 21.1403C16.3669 20.7643 16.0609 20.4583 15.6849 20.4583H13.639C12.135 20.4583 10.9113 19.2346 10.9113 17.7306C10.9113 16.2266 12.135 15.0029 13.639 15.0029V13.298C13.639 12.7331 14.097 12.275 14.6619 12.275C15.2268 12.275 15.6849 12.7331 15.6849 13.298V15.0029H17.3898C17.9548 15.0029 18.4128 15.4607 18.4128 16.0256C18.4128 16.5908 17.9547 17.0486 17.3898 17.0486H13.639C13.2629 17.0486 12.9572 17.3545 12.9572 17.7306C12.9572 18.1067 13.2629 18.4127 13.639 18.4127H13.639ZM11.5931 3.06882C11.5931 2.50473 12.0522 2.04588 12.616 2.04588H16.7078C17.2719 2.04588 17.7307 2.50473 17.7307 3.06882V4.09176H11.5931L11.5931 3.06882ZM26.2552 4.09176H19.7766V3.06882C19.7766 1.37654 18.3998 0 16.7078 0H12.616C10.924 0 9.54748 1.37655 9.54748 3.06882V4.09176H3.06894C1.37666 4.09176 0.00012207 5.46831 0.00012207 7.16031C0.00012207 8.73733 1.19567 10.0395 2.72778 10.2099V27.6188C2.72778 29.3109 4.1046 30.6877 5.7966 30.6877H11.417L7.25594 33.6001C6.79303 33.9242 6.68048 34.5622 7.0046 35.0248C7.32412 35.4812 7.97208 35.5962 8.42903 35.2764L13.639 31.6294V34.4383C13.639 35.0032 14.097 35.4612 14.6619 35.4612C15.2268 35.4612 15.6849 35.0032 15.6849 34.4383V31.6294L20.8948 35.2764C21.3518 35.5962 22 35.4815 22.3195 35.0248C22.6433 34.5622 22.5308 33.9242 22.0679 33.6001L17.9071 30.6877H23.5272C25.2195 30.6877 26.596 29.3108 26.596 27.6188V10.2099C28.1282 10.0395 29.3237 8.73734 29.3237 7.16031C29.3237 5.4683 27.9472 4.09176 26.2552 4.09176Z" fill="#D10263"/>
</svg>
