<svg width="29" height="35" viewBox="0 0 29 35" fill="none" xmlns="http://www.w3.org/2000/svg">
<path fill-rule="evenodd" clip-rule="evenodd" d="M22.3006 9.12532C22.3006 11.364 21.4978 13.3018 19.9141 14.8858C18.3303 16.4696 16.3923 17.2724 14.1535 17.2724H14.1497C11.9138 17.2716 9.97702 16.4688 8.39328 14.8858C6.80928 13.3018 6.00671 11.364 6.00671 9.12532C6.00671 6.88739 6.80928 4.94933 8.39328 3.36558C9.97624 1.78236 11.913 0.979784 14.1497 0.979004H14.1535C16.3915 0.979004 18.3295 1.78183 19.9141 3.36558C21.4978 4.94932 22.3006 6.88738 22.3006 9.12532Z" fill="#F9C229"/>
<path fill-rule="evenodd" clip-rule="evenodd" d="M28.4774 28.9867C28.4774 30.7529 27.9156 32.1829 26.809 33.236C25.7153 34.2769 24.2689 34.804 22.5101 34.804H6.22322C4.46451 34.804 3.01805 34.2769 1.92515 33.236C0.817805 32.1821 0.256775 30.7525 0.256775 28.9867C0.256775 28.3075 0.279225 27.6355 0.324125 26.9893C0.369805 26.3287 0.462185 25.6097 0.598445 24.8513C0.735735 24.0866 0.912255 23.3638 1.1236 22.7032C1.34295 22.0193 1.63973 21.3447 2.00695 20.6985C2.38838 20.0278 2.83637 19.4436 3.33856 18.9625C3.86501 18.459 4.50863 18.0546 5.25262 17.7599C5.99404 17.4668 6.81599 17.3181 7.69547 17.3181C8.04049 17.3181 8.37469 17.4593 9.01882 17.8789C9.42192 18.1419 9.88644 18.4412 10.3992 18.769C10.842 19.0513 11.4418 19.316 12.1832 19.5552C12.8348 19.7661 13.4962 19.8838 14.1497 19.9042C14.2217 19.9068 14.2937 19.9081 14.3657 19.9081C15.0913 19.9081 15.8253 19.7891 16.5489 19.5553C17.2903 19.316 17.8908 19.0513 18.3334 18.769C18.8516 18.4379 19.3161 18.1388 19.7133 17.8797C20.3579 17.4593 20.6916 17.3181 21.0374 17.3181C21.9161 17.3181 22.738 17.4668 23.48 17.7599C24.224 18.0547 24.8676 18.4599 25.3935 18.9625C25.8965 19.4436 26.3445 20.0278 26.7257 20.6985C27.0931 21.3452 27.3904 22.0193 27.609 22.7024C27.8206 23.3638 27.9977 24.0866 28.1349 24.8518C28.2704 25.611 28.3631 26.33 28.4085 26.9888C28.4542 27.633 28.4766 28.305 28.4774 28.9868L28.4774 28.9867Z" fill="#F9C229"/>
</svg>
