<svg width="31" height="26" viewBox="0 0 31 26" fill="none" xmlns="http://www.w3.org/2000/svg">
<path fill-rule="evenodd" clip-rule="evenodd" d="M19.2115 20.7413L20.392 16.0188C20.5108 15.5443 20.9921 15.256 21.4658 15.3745C21.9403 15.493 22.2288 15.9738 22.1101 16.4483L20.9295 21.1708C20.8288 21.5731 20.4679 21.8418 20.0712 21.8418C20 21.8418 19.9276 21.8331 19.8557 21.8151C19.3813 21.6963 19.0927 21.2157 19.2115 20.7413ZM10.8402 21.8151C10.7681 21.8331 10.696 21.8418 10.6248 21.8418C10.2281 21.8418 9.86717 21.5732 9.76646 21.1708L8.5859 16.4483C8.46716 15.9738 8.75569 15.493 9.23016 15.3745C9.7044 15.256 10.1852 15.5443 10.3039 16.0188L11.4845 20.7413C11.6032 21.2157 11.3147 21.6963 10.8402 21.8151ZM16.2335 16.2336V20.956C16.2335 21.445 15.837 21.8415 15.348 21.8415C14.859 21.8415 14.4625 21.445 14.4625 20.956V16.2336C14.4625 15.7445 14.859 15.3481 15.348 15.3481H4.09802L4.86243 22.9912C4.99873 24.3551 6.13527 25.3832 7.50553 25.3832H23.1901C24.5606 25.3832 25.6972 24.3549 25.8335 22.9912L26.5979 15.3481H15.3479C15.8369 15.3481 16.2334 15.7445 16.2334 16.2336H16.2335Z" fill="#EC6C0B"/>
<path fill-rule="evenodd" clip-rule="evenodd" d="M27.4495 7.08364H24.3038L23.0258 1.97214C22.7354 0.81101 21.6967 0 20.5 0C19.6925 0 18.9447 0.36487 18.4478 1.00117C17.951 1.63771 17.7784 2.45176 17.9742 3.2349L18.9365 7.08363H11.7594L12.7217 3.2349C12.9175 2.45176 12.7449 1.6377 12.2482 1.00117C11.7512 0.36487 11.0032 0 10.1959 0C8.99923 0 7.96057 0.81101 7.67018 1.97214L6.39219 7.08364H3.2465C1.45633 7.08364 -0.00012207 8.54009 -0.00012207 10.3305C-0.00012207 12.1207 1.45633 13.5771 3.2465 13.5771H27.4494C29.2396 13.5771 30.696 12.1207 30.696 10.3305C30.696 8.54009 29.2396 7.08364 27.4494 7.08364H27.4495Z" fill="#EC6C0B"/>
</svg>
