<svg width="24" height="24" viewBox="0 0 22 23" fill="none" xmlns="http://www.w3.org/2000/svg">
<path fill-rule="evenodd" clip-rule="evenodd" d="M7.99071 8.56168C7.99071 8.69322 7.88366 8.80028 7.75211 8.80028H2.04446C1.91296 8.80028 1.80591 8.69323 1.80591 8.56168V2.85403C1.80591 2.72253 1.91296 2.61548 2.04446 2.61548H7.75211C7.88365 2.61548 7.99071 2.72249 7.99071 2.85403V8.56168ZM7.75212 0.80957H2.04447C0.91719 0.80957 0 1.72676 0 2.85404V8.56173C0 9.68905 0.91719 10.6062 2.04447 10.6062H7.75216C8.87948 10.6062 9.79663 9.68901 9.79663 8.56169V2.85404C9.79663 1.72676 8.87948 0.80957 7.75212 0.80957Z" fill="#5F87E7"/>
<path fill-rule="evenodd" clip-rule="evenodd" d="M20.1941 8.56168C20.1941 8.69322 20.0871 8.80028 19.9555 8.80028H14.2478C14.1163 8.80028 14.0093 8.69323 14.0093 8.56168V2.85403C14.0093 2.72253 14.1163 2.61548 14.2478 2.61548H19.9555C20.087 2.61548 20.1941 2.72249 20.1941 2.85403V8.56168ZM19.9555 0.80957H14.2478C13.1205 0.80957 12.2034 1.72676 12.2034 2.85404V8.56169C12.2034 9.68906 13.1205 10.6062 14.2478 10.6062H19.9555C21.0829 10.6062 22 9.68901 22 8.56169V2.85404C22 1.72676 21.0828 0.80957 19.9555 0.80957Z" fill="#5F87E7"/>
<path fill-rule="evenodd" clip-rule="evenodd" d="M20.1941 20.7653C20.1941 20.8968 20.0871 21.0039 19.9555 21.0039H14.2478C14.1163 21.0039 14.0093 20.8969 14.0093 20.7653V15.0576C14.0093 14.9261 14.1163 14.8191 14.2478 14.8191H19.9555C20.087 14.8191 20.1941 14.9261 20.1941 15.0576V20.7653ZM19.9555 13.0132H14.2478C13.1205 13.0132 12.2034 13.9304 12.2034 15.0576V20.7653C12.2034 21.8927 13.1205 22.8098 14.2478 22.8098H19.9555C21.0828 22.8098 22 21.8926 22 20.7653V15.0576C22 13.9304 21.0829 13.0132 19.9555 13.0132Z" fill="#5F87E7"/>
<path fill-rule="evenodd" clip-rule="evenodd" d="M7.99071 20.7653C7.99071 20.8968 7.88366 21.0039 7.75211 21.0039H2.04446C1.91296 21.0039 1.80591 20.8969 1.80591 20.7653V15.0576C1.80591 14.9261 1.91292 14.8191 2.04446 14.8191H7.75211C7.88365 14.8191 7.99071 14.9261 7.99071 15.0576V20.7653ZM7.75212 13.0132H2.04447C0.91719 13.0132 0 13.9303 0 15.0576V20.7653C0 21.8926 0.91719 22.8098 2.04447 22.8098H7.75216C8.87948 22.8098 9.79663 21.8926 9.79663 20.7653V15.0576C9.79663 13.9304 8.87948 13.0132 7.75212 13.0132Z" fill="#5F87E7"/>
</svg>
