<svg width="12" height="12" viewBox="0 0 12 12" fill="none" xmlns="http://www.w3.org/2000/svg">
<path fill-rule="evenodd" clip-rule="evenodd" d="M10.8862 1.11314C10.7353 0.962297 10.4908 0.962297 10.3399 1.11314L1.55082 9.90224C1.39998 10.0531 1.39998 10.2976 1.55082 10.4485C1.62623 10.5239 1.7251 10.5616 1.82394 10.5616C1.92279 10.5616 2.02164 10.5239 2.09707 10.4484L10.8862 1.65934C11.037 1.50852 11.037 1.26397 10.8862 1.11314Z" fill="white" stroke="white"/>
<path fill-rule="evenodd" clip-rule="evenodd" d="M10.8861 9.90226L2.09703 1.11316C1.9462 0.962317 1.70164 0.962317 1.55082 1.11316C1.39998 1.26398 1.39998 1.50853 1.55082 1.65936L10.3399 10.4485C10.4153 10.5239 10.5142 10.5616 10.6131 10.5616C10.7119 10.5616 10.8108 10.5239 10.8862 10.4485C11.037 10.2976 11.037 10.0531 10.8861 9.90225V9.90226Z" fill="white" stroke="white"/>
</svg>
